<?xml version="1.0" encoding="utf-8"?>
<!-- Generator: Adobe Illustrator 20.0.0, SVG Export Plug-In . SVG Version: 6.00 Build 0)  -->
<svg version="1.1" id="Capa_1" xmlns="http://www.w3.org/2000/svg" xmlns:xlink="http://www.w3.org/1999/xlink" x="0px" y="0px"
	 viewBox="0 0 70.9 72.7" style="enable-background:new 0 0 70.9 72.7;" xml:space="preserve">
<style type="text/css">
	.st0{fill:#1E2242;}
</style>
<g>
	<g>
		<g>
			<g>
				<path class="st0" d="M34,26.7c0.6,0.1,1.2,0.1,1.7,0.1c0.5,0,1.1,0,1.7-0.1v-1c-0.6,0.1-1.2,0.1-1.7,0.1c-0.5,0-1.1,0-1.7-0.1
					V26.7z"/>
				<polygon class="st0" points="35.7,5.7 35.7,5.7 35.7,5.7 				"/>
				<path class="st0" d="M46,7c-1.2,1-2.8,1.6-4.5,1.6c-2.4,0-4.5-1.1-5.8-2.9v0l0,0c-1.3,1.8-3.4,2.9-5.8,2.9
					c-1.7,0-3.3-0.6-4.5-1.6c0.1-3.6,3-4.3,3-4.3s1.2-0.7,6-0.8c0.4,0,0.9,0,1.4,0c0.5,0,1,0,1.4,0c4.7,0.1,6,0.8,6,0.8S46,3.4,46,7
					z M33.5,4.8c-0.1-0.9-1.7-1.5-3.5-1.2c-1.8,0.3-3.2,1.2-3,2.2c0.1,0.9,1.7,1.5,3.5,1.2C32.3,6.7,33.6,5.7,33.5,4.8z M40.9,6.9
					c1.8,0.3,3.4-0.3,3.5-1.2s-1.2-1.9-3-2.2S38,3.8,37.8,4.7C37.7,5.7,39.1,6.6,40.9,6.9z"/>
				<path class="st0" d="M48.8,22.6c-0.9-1.6-0.4-3.2-0.4-6.4c0-0.2,0-0.5,0-0.8c0-0.5-0.1-1-0.2-1.6c-0.3-2.1-0.8-4.4-1.4-5.8
					c-1.5,1.2-3.3,2-5.3,2c-2.2,0-4.3-0.8-5.8-2.2c-1.5,1.4-3.6,2.2-5.8,2.2c-2.1,0-4-0.7-5.5-2c-0.7,1.5-1.2,3.7-1.4,5.7
					c-0.1,0.6-0.1,1.1-0.1,1.6c0,0.3,0,0.7,0,1c0,2.1,0.4,4.7,0.3,6c-0.4,3.3-2,4.6-4.8,8c0.5,3,2.7,4.2,4,4.6
					c0.4-0.5,0.9-1.1,1.4-1.8c1.2,4.1,3.4,7.4,5.3,9.7c1.8,2.2,3.6,3.8,4.9,4.8c0.2,0.1,0.3,0.3,0.5,0.4c0.6,0.4,0.9,0.7,1,0.7
					l0.4,0.2l0.4-0.2c0,0,0.4-0.3,1-0.7c0.3-0.3,0.7-0.6,1.2-1c1.1-1,2.6-2.4,4.1-4.1c2.1-2.6,4.6-6.4,5.7-11.2
					c2-0.9,3.8-2.1,5.1-4.5C52.1,23.8,49.5,23.8,48.8,22.6z M25.8,13L25.8,13c0-0.1,0.1-0.2,0.1-0.3h19.2c0.1,0.4,0.2,0.8,0.3,1.2
					c0,0.1,0,0.2,0.1,0.3c-0.7,0.2-3.4,1-7.5,1V17l0,6.3c-0.8,0.1-0.9,0.2-2.3,0.2c-1.3,0-1.5-0.1-2.3-0.2l0-6.3v-1.8
					c-4,0-7-0.8-7.8-1C25.6,13.8,25.7,13.4,25.8,13z M29.5,41.1c-1.9-2.5-3.8-5.7-4.7-9.5c0.4-0.6,1.2-1.5,1.6-2.1
					c0.9,1.6,1.7,2,3.2,3.7V41.1z M34.3,46.2c-0.6-0.5-1.3-1.2-2.1-2l0,0l0-8.4c0.6,0.5,1.1,1,1.6,1.3c0.2,0.1,0.3,0.3,0.5,0.4
					c0,0,0.1,0.1,0.1,0.1V46.2z M37,46.2L37,46.2l0-8.5c0.3-0.3,0.7-0.6,1.1-0.9c0.3-0.3,0.7-0.6,1-0.9l0,8.4
					C38.4,45,37.6,45.7,37,46.2z M35.5,29.9c-3.6,0-6.7-2.3-8.4-5.7c-0.5-1-0.9-2.2-1.2-3.4l0,0c-0.3-1.3-0.5-2.6-0.5-4
					c0-0.3,0-0.7,0-1c1.9,0.4,4,0.8,6.3,0.9v0.9c-1.9,0.3-4.4-0.3-4.4-0.3l0,1.3c0,0,1.9,0.6,4.4,0.3l0,4.4v0.8c0,0,2.4,0.5,4.1,0.5
					c1.8,0,4-0.5,4-0.5v-0.8l0,0l0-4.4c2.5,0.2,4.4-0.3,4.4-0.3l0-1.3c0,0-2.5,0.7-4.4,0.3v-0.9c2.1-0.2,4.1-0.5,5.9-0.9
					c0,0.3,0,0.7,0,1c0,1.3-0.2,2.5-0.5,3.7c-0.2,0.9-0.4,1.8-0.8,2.6C42.8,27.2,39.4,29.9,35.5,29.9z M41.9,41.1V33
					c0.1-0.1,0.2-0.2,0.3-0.4c1.2-1.5,2.2-2,3.3-4.3c0.3,0.3,1.1,0.9,1.5,1.5C46.2,34.5,44,38.4,41.9,41.1z"/>
			</g>
		</g>
	</g>
</g>
<g>
	<path class="st0" d="M6.3,58.9H11v1.5H7.9v3.4h2.7v1.5H7.9V70H6.3V58.9z"/>
	<path class="st0" d="M13.3,58.9h1.6v9.5H18V70h-4.7V58.9z"/>
	<path class="st0" d="M20.8,65.3l-2.2-6.4h1.7l1.3,4.4h0l1.3-4.4h1.7l-2.2,6.4V70h-1.6V65.3z"/>
	<path class="st0" d="M26.9,64.9h6.8v1.6h-6.8V64.9z"/>
	<path class="st0" d="M37.6,58.9h4.7v1.5h-3.1v3.4h2.7v1.5h-2.7V70h-1.6V58.9z"/>
	<path class="st0" d="M44.6,61.6c0-0.4,0.1-0.8,0.2-1.2c0.2-0.3,0.4-0.6,0.6-0.8c0.3-0.2,0.5-0.4,0.9-0.5c0.3-0.1,0.6-0.2,1-0.2
		c0.3,0,0.6,0.1,1,0.2c0.3,0.1,0.6,0.3,0.9,0.5c0.3,0.2,0.5,0.5,0.6,0.8c0.2,0.3,0.2,0.7,0.2,1.2v5.9c0,0.5-0.1,0.9-0.2,1.2
		c-0.2,0.3-0.4,0.6-0.6,0.8c-0.3,0.2-0.5,0.4-0.9,0.5c-0.3,0.1-0.6,0.2-1,0.2c-0.3,0-0.6-0.1-1-0.2s-0.6-0.3-0.9-0.5
		c-0.3-0.2-0.5-0.5-0.6-0.8c-0.2-0.3-0.2-0.7-0.2-1.2V61.6z M46.2,67.4c0,0.4,0.1,0.7,0.3,0.8c0.2,0.2,0.5,0.3,0.8,0.3
		c0.3,0,0.5-0.1,0.8-0.3c0.2-0.2,0.3-0.5,0.3-0.8v-5.9c0-0.4-0.1-0.7-0.3-0.8c-0.2-0.2-0.5-0.3-0.8-0.3c-0.3,0-0.5,0.1-0.8,0.3
		c-0.2,0.2-0.3,0.5-0.3,0.8V67.4z"/>
	<path class="st0" d="M52.2,61.6c0-0.4,0.1-0.8,0.2-1.2c0.2-0.3,0.4-0.6,0.6-0.8c0.3-0.2,0.5-0.4,0.9-0.5c0.3-0.1,0.6-0.2,1-0.2
		c0.3,0,0.6,0.1,1,0.2c0.3,0.1,0.6,0.3,0.9,0.5c0.3,0.2,0.5,0.5,0.6,0.8c0.2,0.3,0.2,0.7,0.2,1.2v5.9c0,0.5-0.1,0.9-0.2,1.2
		c-0.2,0.3-0.4,0.6-0.6,0.8c-0.3,0.2-0.5,0.4-0.9,0.5c-0.3,0.1-0.6,0.2-1,0.2c-0.3,0-0.6-0.1-1-0.2s-0.6-0.3-0.9-0.5
		c-0.3-0.2-0.5-0.5-0.6-0.8c-0.2-0.3-0.2-0.7-0.2-1.2V61.6z M53.8,67.4c0,0.4,0.1,0.7,0.3,0.8c0.2,0.2,0.5,0.3,0.8,0.3
		c0.3,0,0.5-0.1,0.8-0.3c0.2-0.2,0.3-0.5,0.3-0.8v-5.9c0-0.4-0.1-0.7-0.3-0.8c-0.2-0.2-0.5-0.3-0.8-0.3c-0.3,0-0.5,0.1-0.8,0.3
		c-0.2,0.2-0.3,0.5-0.3,0.8V67.4z"/>
	<path class="st0" d="M61.6,60.4h-1.8v-1.5h5.3v1.5h-1.8V70h-1.6V60.4z"/>
</g>
</svg>
